<?xml version="1.0" encoding="UTF-8"?>
<svg id="Layer_1" xmlns="http://www.w3.org/2000/svg" version="1.1" viewBox="0 0 290.89 300.51">
  <!-- Generator: Adobe Illustrator 29.0.0, SVG Export Plug-In . SVG Version: 2.1.0 Build 186)  -->
  <defs>
    <style>
      .st0 {
        fill: none;
      }

      .st0, .st1 {
        stroke: #006838;
        stroke-miterlimit: 10;
      }

      .st1 {
        fill: #006838;
        stroke-width: .25px;
      }

      .st2 {
        fill: #fbb040;
      }
    </style>
  </defs>
  <circle class="st2" cx="145.48" cy="154.62" r="76.81"/>
  <path class="st2" d="M42.93,57.92c-.74.2-.88,1.21-.27,1.67,2.54,1.92,9.58,7.52,10.77,11.5,1.46,4.87,10.25,22.08,12.66,24.35,14.4,13.57,16.56,10.26,17.22,17.03,0,0,23.11-17.36,19.64-19.34-4.51-2.59-7.07-10.27-25.91-11.08-6.37-.27-16.31-14.37-20.45-17.77-3.5-2.88-10.66-7.16-13.67-6.35Z"/>
  <path class="st2" d="M88.11,25.96c-.76-.08-1.26.8-.86,1.46,1.66,2.72,6.17,10.5,5.83,14.64-.42,5.07,1.47,24.3,2.89,27.29,8.44,17.89,11.66,15.6,9.8,22.15,0,0,27.85-7.71,25.35-10.83-3.25-4.06-2.83-12.15-20.07-19.78-5.83-2.58-9.94-19.33-12.54-24.02-2.21-3.96-7.31-10.56-10.4-10.9Z"/>
  <path class="st2" d="M140.27,12.21c-.68-.36-1.47.27-1.34,1.03.52,3.14,1.78,12.05-.09,15.75-2.29,4.54-7.74,23.08-7.55,26.38,1.12,19.75,4.96,18.84.79,24.21,0,0,28.71,3.29,27.56-.53-1.5-4.98,1.93-12.32-11.18-25.86-4.43-4.58-1.96-21.65-2.62-26.97-.56-4.5-2.81-12.53-5.56-14.01Z"/>
  <path class="st2" d="M12.28,105.43c-.6.47-.34,1.45.41,1.64,3.09.77,11.76,3.18,14.41,6.37,3.25,3.91,18.07,16.31,21.17,17.46,18.56,6.86,19.25,2.97,22.51,8.95,0,0,14.48-25.01,10.52-25.48-5.16-.62-10.53-6.69-28.18-.07-5.97,2.24-20.63-6.84-25.77-8.36-4.35-1.29-12.61-2.42-15.06-.5Z"/>
  <path class="st2" d="M7.54,165.95c-.31.7.38,1.44,1.13,1.26,3.09-.76,11.88-2.69,15.71-1.11,4.7,1.94,23.6,5.96,26.88,5.53,19.61-2.62,18.4-6.38,24.08-2.63,0,0,1.1-28.88-2.63-27.44-4.85,1.87-12.43-.99-24.94,13.12-4.23,4.77-21.44,3.6-26.69,4.67-4.45.9-12.28,3.76-13.54,6.61Z"/>
  <path class="st2" d="M22.7,217.92c-.04.77.87,1.21,1.5.77,2.62-1.82,10.13-6.76,14.28-6.65,5.08.13,24.17-2.86,27.08-4.45,17.38-9.45,14.91-12.54,21.55-11.06,0,0-9.29-27.36-12.26-24.69-3.86,3.48-11.97,3.52-18.6,21.17-2.24,5.96-18.73,11.03-23.26,13.9-3.83,2.43-10.12,7.9-10.29,11.01Z"/>
  <path class="st2" d="M53.11,260.88c.22.74,1.23.85,1.68.22,1.85-2.59,7.25-9.78,11.19-11.08,4.83-1.6,21.78-10.86,23.99-13.33,13.16-14.77,9.8-16.83,16.55-17.68,0,0-17.99-22.62-19.88-19.1-2.46,4.58-10.07,7.36-10.36,26.2-.1,6.37-13.91,16.7-17.2,20.94-2.79,3.58-6.86,10.85-5.97,13.84Z"/>
  <path class="st2" d="M102.57,288.7c.48.6,1.46.32,1.63-.43.73-3.1,3-11.8,6.16-14.5,3.86-3.31,16.04-18.3,17.15-21.43,6.59-18.65,2.69-19.29,8.61-22.64,0,0-25.22-14.11-25.63-10.14-.54,5.17-6.53,10.63.34,28.18,2.32,5.93-6.54,20.73-7.98,25.89-1.22,4.37-2.24,12.64-.28,15.07Z"/>
  <path class="st2" d="M155.99,294.04c.66.39,1.48-.22,1.37-.98-.42-3.16-1.39-12.1.59-15.74,2.43-4.46,8.48-22.82,8.4-26.13-.49-19.78-4.35-18.98-.01-24.22,0,0-28.59-4.21-27.56-.35,1.34,5.03-2.32,12.26,10.35,26.21,4.28,4.72,1.27,21.7,1.76,27.04.41,4.52,2.41,12.61,5.11,14.18Z"/>
  <path class="st2" d="M215.69,277.22c.76.02,1.19-.9.74-1.52-1.84-2.57-6.87-9.95-6.83-14.09.04-5.07-3.25-24.04-4.87-26.9-9.66-17.12-12.67-14.58-11.32-21.24,0,0-26.93,9.88-24.23,12.78,3.51,3.78,3.69,11.85,21.27,18.07,5.94,2.1,11.24,18.43,14.16,22.88,2.47,3.76,7.99,9.92,11.08,10.01Z"/>
  <path class="st2" d="M252.53,245.2c.72-.23.82-1.24.2-1.68-2.59-1.82-9.77-7.12-11.1-11.04-1.64-4.8-11.01-21.62-13.48-23.79-14.77-12.97-16.77-9.59-17.7-16.31,0,0-22.15,18.22-18.65,20.06,4.56,2.4,7.4,9.97,26.05,10.04,6.3.02,16.69,13.69,20.92,16.92,3.57,2.74,10.82,6.72,13.76,5.79Z"/>
  <path class="st2" d="M279.39,195.82c.56-.52.22-1.47-.54-1.6-3.12-.54-11.87-2.27-14.75-5.25-3.53-3.64-19.18-14.85-22.34-15.76-18.89-5.42-19.26-1.51-22.97-7.2,0,0-12.26,25.93-8.3,26.1,5.15.23,10.95,5.86,27.84-2.04,5.71-2.67,20.94,5.25,26.14,6.37,4.4.95,12.65,1.46,14.92-.64Z"/>
  <path class="st2" d="M285.43,142.38c.3-.7-.4-1.43-1.14-1.24-3.07.78-11.77,2.76-15.61,1.21-4.71-1.89-23.56-5.75-26.82-5.3-19.46,2.74-18.2,6.46-23.91,2.78,0,0-.64,28.67,3.04,27.22,4.8-1.89,12.38.89,24.6-13.2,4.13-4.76,21.26-3.73,26.47-4.82,4.41-.92,12.15-3.82,13.37-6.65Z"/>
  <path class="st2" d="M270.98,92.43c.03-.76-.88-1.2-1.51-.76-2.59,1.81-10.04,6.73-14.18,6.64-5.07-.11-24.08,2.92-26.97,4.5-17.25,9.42-14.76,12.46-21.39,11.02,0,0,9.51,27.06,12.44,24.4,3.82-3.46,11.9-3.53,18.37-21.02,2.18-5.91,18.58-10.98,23.08-13.84,3.8-2.42,10.03-7.86,10.17-10.94Z"/>
  <path class="st2" d="M244.59,51.76c-.2-.78-1.22-.93-1.69-.28-1.95,2.68-7.62,10.09-11.64,11.34-4.93,1.54-22.36,10.79-24.66,13.33-13.74,15.16-10.39,17.43-17.25,18.13,0,0,17.58,24.33,19.59,20.68,2.62-4.75,10.41-7.45,11.23-27.28.28-6.7,14.55-17.18,18-21.53,2.92-3.69,7.25-11.22,6.43-14.39Z"/>
  <path class="st2" d="M198.8,21.78c-.47-.66-1.47-.43-1.68.34-.85,3.2-3.48,12.15-6.79,14.77-4.05,3.21-16.98,18.12-18.22,21.31-7.37,19.09-3.43,20-9.58,23.12,0,0,25.16,16.38,25.72,12.25.74-5.38,7.03-10.69.66-29.49-2.15-6.35,7.4-21.26,9.05-26.57,1.4-4.49,2.73-13.08.82-15.74Z"/>
  <g>
    <path class="st1" d="M136.56,134.78c-1.03.4-2.27.67-3.48.76l-.46,2.54c-.04.29-.19.4-.38.4-.27,0-.5-.15-.5-.44,0-.17.08-.69.19-1.26.08-.48.19-.88.23-1.24-1.81-.08-2.44-.61-2.44-1.51,0-1.03.99-1.66,2.6-1.55,0-3.53-.27-5.98-.65-6.68-.1-.19-.19-.29-.19-.46,0-.25.29-.46.55-.46.23,0,.42.15.55.48.36.97.67,3.65.71,6.51,1.72-4.22,4.47-8.57,7.71-8.57,1.66,0,2.73,1.15,2.73,2.92,0,2.81-2.39,6.47-6.13,8.25,2.86,2.04,4.51,4.87,4.51,4.87,0,0,.08.15.08.21,0,.23-.23.44-.46.44-.15,0-.29-.08-.4-.23,0,0-1.79-3.07-4.77-4.98ZM132.24,134.76c.04-.44.08-1.01.08-1.47-.65-.08-1.68.04-1.68.73,0,.38.36.69,1.6.73ZM135.7,134.25c-.65-.34-1.34-.61-2.08-.76-.19.4-.29.84-.38,1.24.88-.04,1.64-.21,2.46-.48ZM133.94,132.68c.92.25,1.89.65,2.75,1.18,3.51-1.64,6.11-5.1,6.11-7.64,0-1.24-.67-2.08-1.81-2.08-2.77,0-5.38,4.41-7.05,8.55Z"/>
    <path class="st1" d="M145.17,137.34c1.01,0,2.14-2.44,2.44-3.13.06-.15.17-.27.34-.27s.36.13.36.34c0,.06-.02.13-.06.25-.38.94-1.53,3.57-3.15,3.57-1.01,0-1.83-.94-1.83-3,0-1.6.21-2.92.36-3.46.06-.25.23-.71.63-.71.34,0,.52.21.52.5,0,.19-.17.46-.29.9-.15.46-.34,1.24-.34,2.71,0,1.6.4,2.31,1.03,2.31ZM145.47,126.8c.34,0,.65.29.65.67s-.36.82-.76.82c-.36,0-.67-.25-.67-.63s.34-.86.78-.86Z"/>
    <path class="st1" d="M155.06,135.53c.04,1.47.84,2.2,2.1,2.2,2.1,0,3.53-2.9,3.8-3.53.13-.25.25-.34.42-.34s.36.13.36.31c0,.1-.06.29-.11.42-.27.61-1.95,3.88-4.56,3.88-1.24,0-2.58-.84-2.83-2.54-1.05.46-1.34.57-1.64.69.04.1.06.21.06.34,0,1.15-1.22,2.35-2.56,2.35-.86,0-1.51-.46-1.51-1.05,0-.78,1.07-1.24,2.65-1.81-1.01-.38-3.78-.38-3.78-1.99s2.58-3.72,3.95-3.72c.71,0,1.13.38,1.13.97,0,.9-1.09,2.02-1.43,2.02-.23,0-.42-.17-.42-.38,0-.13.13-.25.31-.44.29-.27.65-.73.65-1.15,0-.15-.08-.25-.25-.25-1.11,0-3.07,1.72-3.07,2.96s3.19.88,3.84,1.64l2.02-.82c.02-2.56,1.83-4.43,3.04-4.43.65,0,1.15.44,1.15,1.18,0,1.32-1.45,2.5-3.34,3.49ZM151.81,136.98c-1.49.59-2.35.99-2.35,1.28,0,.21.23.4.69.4.88,0,1.66-.8,1.66-1.68ZM155.08,134.84c1.43-.84,2.48-1.81,2.48-2.79,0-.25-.15-.42-.31-.42-.74,0-1.95,1.36-2.16,3.21Z"/>
    <path class="st1" d="M150.49,157.29c0,.23-.19.36-.38.36-1.01,0-1.83-.42-1.83-.42.19.36.25.84.25,1.34,0,.99-.32,2.06-.97,2.92.57.36,1.22.65,1.81.69.42.04.63.13.63.4s-.17.42-.4.42c-.84,0-1.72-.42-2.54-.92-.76.71-1.79,1.22-3.07,1.22-2.14,0-3.86-1.3-3.86-3.55,0-1.85,1.2-3.13,2.5-4.22-.13-.71-.23-1.43-.23-2.14,0-2.52,1.64-3.86,3.02-3.86.88,0,1.74.63,1.74,1.68,0,1.91-1.89,3.09-3.57,4.45.53,2.23,1.81,4.24,3.36,5.42.48-.73.71-1.66.71-2.5,0-1.3-.67-1.85-.67-2.12,0-.21.19-.4.38-.4.29,0,1.11.63,2.65.84.29.04.46.15.46.4ZM146.46,161.64c-1.55-1.22-2.9-3.19-3.59-5.35-1.05.92-1.85,1.99-1.85,3.46,0,1.76,1.28,2.73,3,2.73,1.07,0,1.89-.31,2.44-.84ZM143.44,154.9c1.47-1.13,2.92-2.16,2.92-3.67,0-.61-.44-.97-.99-.97-1.07,0-2.06,1.15-2.06,3.19,0,.48.04.99.13,1.45Z"/>
    <path class="st1" d="M130.11,174.87c.23,0,.44.15.44.46,0,.19-.15.4-.27.76-.15.42-.34,1.28-.34,3.91v4.33c1.26-4.26,4.12-10.06,7.89-10.06,2.77,0,4.07,2.25,4.07,5.5,0,5.44-3,10.02-6.91,10.02-2.71,0-3.93-2.16-3.93-2.58,0-.27.19-.48.44-.48.19,0,.36.23.52.52.38.61.97,1.7,3.07,1.7,3.34,0,5.9-4.24,5.9-9.11,0-2.86-1.07-4.68-3.11-4.68-3.67,0-6.28,6.49-7.47,10.58-.29.97-.57,1.85-.69,2.92-.04.36-.19.48-.46.48s-.5-.21-.5-.55c0-.23.23-2.1.23-8.61,0-3.04.23-4.24.48-4.68.15-.27.34-.42.63-.42Z"/>
    <path class="st1" d="M144.98,187.74c1.01,0,2.14-2.44,2.44-3.13.06-.15.17-.27.34-.27s.36.13.36.34c0,.06-.02.13-.06.25-.38.94-1.53,3.57-3.15,3.57-1.01,0-1.83-.94-1.83-3,0-1.6.21-2.92.36-3.46.06-.25.23-.71.63-.71.34,0,.53.21.53.5,0,.19-.17.46-.29.9-.15.46-.34,1.24-.34,2.71,0,1.6.4,2.31,1.03,2.31ZM145.28,177.2c.34,0,.65.29.65.67s-.36.82-.76.82c-.36,0-.67-.25-.67-.63s.34-.86.78-.86Z"/>
    <path class="st1" d="M152.14,185.05c-.27-1.34-.4-2.14-.86-2.14-1.41,0-3.72,5.94-3.72,5.94-.21.44-.8.42-.86-.1-.02-.21.08-.82.19-1.45.21-1.22.5-2.96.5-4.35,0-.82-.29-1.22-.29-1.43,0-.25.25-.4.46-.4.25,0,.69.52.69,1.83s-.08,2.02-.25,3.02c.97-1.93,2.1-3.88,3.38-3.88s1.32,1.3,1.62,2.94c.23,1.26.44,2.73,1.34,2.73.46,0,1.01-.25,1.51-.65-.15-.38-.23-.82-.23-1.34,0-2.6,1.83-4.49,3.04-4.49.65,0,1.15.44,1.15,1.18,0,1.09-1.41,3.3-3.02,4.75.36.61.97.92,1.79.92,2.14,0,3.53-2.88,3.82-3.51.13-.25.23-.34.4-.34s.36.13.36.31c0,.1-.04.25-.11.42-.38.86-1.95,3.88-4.56,3.88-.86,0-1.76-.4-2.33-1.22-.67.5-1.36.82-1.99.82-1.45,0-1.72-1.87-2.04-3.44ZM156.55,186.5c1.28-1.28,2.42-3.21,2.42-4.05,0-.25-.11-.42-.29-.42-.8,0-2.18,1.64-2.18,3.74,0,.27.02.5.06.73Z"/>
  </g>
  <circle class="st0" cx="145.84" cy="155.18" r="62.82"/>
  <path class="st0" d="M115.95,188.89l-.68-38.82c-.02-.88.54-1.65,1.37-1.95,2.23-.8,3.85-3.14,3.85-5.91l-.98-19.68c-.03-.56-.49-1-1.05-1h-.09c-.55,0-1.01.43-1.05.98l-.97,15.3h-.87l-.93-15.3c-.03-.55-.49-.99-1.05-.99h0c-.56,0-1.01.43-1.05.99l-.93,15.3h-.87l-.97-15.3c-.04-.55-.49-.98-1.05-.98h-.09c-.56,0-1.02.44-1.05,1l-.98,19.68c0,2.77,1.62,5.12,3.85,5.91.83.29,1.39,1.07,1.37,1.95l-.68,38.82c0,1.52,1.1,2.75,2.45,2.75h0c1.35,0,2.45-1.23,2.45-2.75Z"/>
  <path class="st0" d="M179.74,121.93c-7.88-2.91-10.67,24.14-10.75,29.16-.07,4.13,2.02,6.31,4.92,7.27.75.25,1.25.95,1.21,1.74l-1.29,26.63c-.12,2.58,1.94,4.73,4.52,4.73h0c.86,0,1.55-.69,1.55-1.55v-67.76c0-.09-.07-.19-.16-.22Z"/>
</svg>